<svg width="20" height="20" viewBox="0 0 20 20" fill="none" xmlns="http://www.w3.org/2000/svg">
<path d="M5 4C5 4.23676 5.04072 4.46184 5.11469 4.66999C5.22686 4.98559 5.17357 5.33638 4.97276 5.60444C4.77194 5.8725 4.45026 6.02222 4.11585 6.00327C4.0776 6.0011 4.03898 6 4 6C2.89543 6 2 6.89543 2 8C2 8.5129 2.19174 8.9786 2.50903 9.3331C2.84885 9.7128 2.84885 10.2872 2.50903 10.6669C2.19174 11.0214 2 11.4871 2 12C2 12.8842 2.57447 13.6369 3.37327 13.9001C3.84924 14.057 4.1356 14.5419 4.04308 15.0345C4.01489 15.1846 4 15.3401 4 15.5C4 16.8807 5.11929 18 6.5 18C7.75862 18 8.8015 17.069 8.9746 15.8583C8.9806 15.8165 8.9891 15.7756 9 15.7358V4C9 2.89543 8.1046 2 7 2C5.89543 2 5 2.89543 5 4ZM11 15.7358C11.0109 15.7756 11.0194 15.8165 11.0254 15.8583C11.1985 17.069 12.2414 18 13.5 18C14.8807 18 16 16.8807 16 15.5C16 15.3401 15.9851 15.1846 15.9569 15.0345C15.8644 14.5419 16.1508 14.057 16.6267 13.9001C17.4255 13.6369 18 12.8842 18 12C18 11.4871 17.8083 11.0214 17.491 10.6669C17.1511 10.2872 17.1511 9.7128 17.491 9.3331C17.8083 8.9786 18 8.5129 18 8C18 6.89543 17.1046 6 16 6C15.961 6 15.9224 6.0011 15.8841 6.00327C15.5497 6.02222 15.2281 5.8725 15.0272 5.60444C14.8264 5.33638 14.7731 4.98559 14.8853 4.66999C14.9593 4.46184 15 4.23676 15 4C15 2.89543 14.1046 2 13 2C11.8954 2 11 2.89543 11 4V15.7358ZM7 0C8.1947 0 9.2671 0.52376 10 1.35418C10.7329 0.52376 11.8053 0 13 0C15.2091 0 17 1.79086 17 4C17 4.04198 16.9994 4.08382 16.9981 4.12552C18.7243 4.56889 20 6.13546 20 8C20 8.728 19.8049 9.4116 19.4646 10C19.8049 10.5884 20 11.272 20 12C20 13.4817 19.1949 14.7734 17.9999 15.4646L18 15.5C18 17.9853 15.9853 20 13.5 20C12.0859 20 10.8248 19.3481 10 18.3285C9.1752 19.3481 7.91405 20 6.5 20C4.01472 20 2 17.9853 2 15.5L2.00014 15.4646C0.80512 14.7734 0 13.4817 0 12C0 11.272 0.19513 10.5884 0.53536 10C0.19513 9.4116 0 8.728 0 8C0 6.13546 1.27573 4.56889 3.00194 4.12552C3.00065 4.08382 3 4.04198 3 4C3 1.79086 4.79086 0 7 0Z" fill="white"/>
</svg>
