<svg width="18" height="20" viewBox="0 0 18 20" fill="none" xmlns="http://www.w3.org/2000/svg">
<path d="M4 4C4 1.79086 5.79086 0 8 0C10.2091 0 12 1.79086 12 4H17C17.5523 4 18 4.44772 18 5V9.1707C18 9.4953 17.8424 9.7997 17.5774 9.9872C17.3123 10.1746 16.9728 10.2217 16.6668 10.1135C16.4595 10.0403 16.2355 10 16 10C14.8954 10 14 10.8954 14 12C14 13.1046 14.8954 14 16 14C16.2355 14 16.4595 13.9597 16.6668 13.8865C16.9728 13.7783 17.3123 13.8254 17.5774 14.0128C17.8424 14.2003 18 14.5047 18 14.8293V19C18 19.5523 17.5523 20 17 20H1C0.44772 20 0 19.5523 0 19V5C0 4.44772 0.44772 4 1 4H4ZM8 2C6.89543 2 6 2.89543 6 4C6 4.23554 6.0403 4.45952 6.11355 4.66675C6.22172 4.97282 6.17461 5.31235 5.98718 5.57739C5.79974 5.84243 5.49532 6 5.17071 6H2V18H16V16C13.7909 16 12 14.2091 12 12C12 9.7909 13.7909 8 16 8V6H10.8293C10.5047 6 10.2003 5.84243 10.0128 5.57739C9.8254 5.31235 9.7783 4.97282 9.8865 4.66675C9.9597 4.45952 10 4.23555 10 4C10 2.89543 9.1046 2 8 2Z" fill="white"/>
</svg>
