<svg width="20" height="20" viewBox="0 0 20 20" fill="none" xmlns="http://www.w3.org/2000/svg">
<path fill-rule="evenodd" clip-rule="evenodd" d="M8.72461 7.52832L8.87695 7.57324L19.3369 11.5586L19.4756 11.623C20.0833 11.9619 20.1667 12.8187 19.6357 13.2686L19.5127 13.3584L15.7256 15.7256L13.3584 19.5127C12.9438 20.176 11.9861 20.1267 11.623 19.4756L11.5586 19.3369L7.57324 8.87695C7.28219 8.11294 7.96631 7.36306 8.72461 7.52832ZM12.7178 16.7627L14.1504 14.4717L14.2168 14.3779C14.288 14.2885 14.3742 14.2113 14.4717 14.1504L16.7627 12.7178L10.2285 10.2285L12.7178 16.7627Z" fill="white"/>
<path d="M5.81836 13.5967L3.34375 16.0713L1.92969 14.6572L4.4043 12.1826L5.81836 13.5967Z" fill="white"/>
<path d="M3.5 10H0V8H3.5V10Z" fill="white"/>
<path d="M5.81836 4.40332L4.4043 5.81738L1.92969 3.34277L3.34375 1.92871L5.81836 4.40332Z" fill="white"/>
<path d="M16.0713 3.34277L13.5967 5.81738L12.1826 4.40332L14.6572 1.92871L16.0713 3.34277Z" fill="white"/>
<path d="M10 3.5H8V0H10V3.5Z" fill="white"/>
</svg>
